<svg xmlns="http://www.w3.org/2000/svg" viewBox="0 0 960 720" role="img" aria-labelledby="title desc">
  <title id="title">Harbor and Hearth evening dining room</title>
  <desc id="desc">Illustrated candlelit dining room with layered seating and warm lamps.</desc>
  <defs>
    <linearGradient id="bg" x1="0" x2="1" y1="0" y2="1">
      <stop offset="0%" stop-color="#d98556"/>
      <stop offset="100%" stop-color="#241210"/>
    </linearGradient>
  </defs>
  <rect width="960" height="720" fill="url(#bg)"/>
  <circle cx="776" cy="120" r="120" fill="#ffe7bf" opacity=".18"/>
  <rect x="0" y="450" width="960" height="270" fill="#1a0d0b"/>
  <rect x="86" y="248" width="244" height="272" rx="32" fill="#6a3a2d"/>
  <rect x="630" y="210" width="244" height="310" rx="32" fill="#4d291f"/>
  <rect x="368" y="300" width="226" height="222" rx="32" fill="#5d3327"/>
  <ellipse cx="208" cy="526" rx="152" ry="48" fill="#40231b"/>
  <ellipse cx="482" cy="542" rx="152" ry="52" fill="#40231b"/>
  <ellipse cx="752" cy="526" rx="152" ry="48" fill="#40231b"/>
  <circle cx="208" cy="302" r="18" fill="#ffd7a7"/>
  <circle cx="482" cy="344" r="18" fill="#ffd7a7"/>
  <circle cx="752" cy="270" r="18" fill="#ffd7a7"/>
  <rect x="200" y="304" width="16" height="92" rx="8" fill="#ffd7a7"/>
  <rect x="474" y="346" width="16" height="92" rx="8" fill="#ffd7a7"/>
  <rect x="744" y="272" width="16" height="92" rx="8" fill="#ffd7a7"/>
  <rect x="156" y="412" width="104" height="12" rx="6" fill="#f3c28c"/>
  <rect x="430" y="432" width="104" height="12" rx="6" fill="#f3c28c"/>
  <rect x="700" y="412" width="104" height="12" rx="6" fill="#f3c28c"/>
</svg>
