<svg xmlns="http://www.w3.org/2000/svg" viewBox="0 0 960 720" role="img" aria-labelledby="title desc">
  <title id="title">Harbor and Hearth pastry display</title>
  <desc id="desc">Illustrated pastry counter with espresso cups and plated pastries.</desc>
  <defs>
    <linearGradient id="bg" x1="0" x2="1" y1="0" y2="1">
      <stop offset="0%" stop-color="#f7e7d8"/>
      <stop offset="100%" stop-color="#b66d47"/>
    </linearGradient>
  </defs>
  <rect width="960" height="720" fill="url(#bg)"/>
  <rect y="480" width="960" height="240" fill="#341c18"/>
  <rect x="126" y="370" width="708" height="148" rx="30" fill="#6a392c"/>
  <rect x="180" y="232" width="600" height="176" rx="28" fill="#fff6ee" opacity=".92"/>
  <ellipse cx="332" cy="438" rx="104" ry="52" fill="#f7d39e"/>
  <ellipse cx="332" cy="426" rx="90" ry="38" fill="#fff1d8"/>
  <ellipse cx="622" cy="438" rx="104" ry="52" fill="#efb26b"/>
  <ellipse cx="622" cy="426" rx="90" ry="38" fill="#ffc985"/>
  <rect x="258" y="288" width="108" height="88" rx="18" fill="#d9874e"/>
  <rect x="592" y="286" width="108" height="92" rx="18" fill="#c76f46"/>
  <circle cx="428" cy="318" r="48" fill="#fbf4ec"/>
  <circle cx="428" cy="318" r="34" fill="#4b2a20"/>
  <rect x="464" y="302" width="44" height="16" rx="8" fill="#fbf4ec"/>
  <circle cx="532" cy="318" r="48" fill="#fbf4ec"/>
  <circle cx="532" cy="318" r="34" fill="#4b2a20"/>
  <rect x="568" y="302" width="44" height="16" rx="8" fill="#fbf4ec"/>
  <circle cx="806" cy="152" r="110" fill="#fff3de" opacity=".28"/>
</svg>
